<svg width="110" height="110" viewBox="0 0 70 110" fill="none" xmlns="http://www.w3.org/2000/svg">
<path d="M13.7056 49C18.7283 54.4793 22.5389 65.1667 24.2056 74.5C25.8723 83.8333 49.8723 82.1667 51.2056 74.5C52.5389 66.8333 58.5252 57.0246 64.2056 48C70.5 38 73.7056 2 39.7056 2C5.7056 2 2.70559 37 13.7056 49Z" fill="#F5DF4D"/>
<path d="M27.7223 109C31.7223 103.617 40.5 109.704 40.5 105.5C40.5 101.296 22.5 106 22.5 101.5C22.5 97 46.2926 102.651 46.2926 97.786C46.2926 92.9209 21 98.9845 21 94.5C21 89.5 46.2926 94.4687 46.2926 89.5C46.2926 84.5313 18.9834 90.1428 18.9834 85.5714C18.9834 81 35 85.5 42 83C49 80.5 47.0382 69.9894 52.5 59.5C57.9618 49.0106 64 46 64 30C64 14 49.5413 1.5 33 1.5C16.4587 1.5 1.5 15.5 1.5 32.5C1.5 49.5 13.5 54 16.5 71.5C19.5 89 33 73.5 33 66.5C33 57.7394 22.3996 48.1614 29.5 43.1927M29.5 43.1927C34.4398 39.736 52.7931 45.823 37.5 53C22.2069 60.177 30.3159 10.1317 37.5 14C44 17.5 34.1426 38.7761 29.5 43.1927ZM29.5 43.1927C22.0719 50.2593 18.9834 43.9786 17.5 41.5" stroke="#4D63F5" stroke-width="2"/>
</svg>
